<?xml version="1.0" encoding="UTF-8"?>
<svg id="Layer_2" data-name="Layer 2" xmlns="http://www.w3.org/2000/svg" viewBox="0 0 32 32">
  <rect x=".545" y=".532" width="23.675" height="23.675" rx="4.857" ry="4.857" transform="translate(-.001 24.738) rotate(-89.935)" fill="none" stroke="#010101" stroke-miterlimit="10"/>
  <path d="M24.099,4.292c2.151.493,3.749,2.427,3.749,4.729l-.02,13.962c0,2.683-2.177,4.853-4.86,4.853l-13.962-.02c-2.302,0-4.222-1.598-4.722-3.749" fill="none" stroke="#010101" stroke-miterlimit="10"/>
  <path d="M27.75,7.932c2.151.493,3.749,2.427,3.749,4.729l-.02,13.962c0,2.683-2.177,4.853-4.86,4.853l-13.962-.02c-2.302,0-4.222-1.598-4.722-3.749" fill="none" stroke="#010101" stroke-miterlimit="10"/>
  <line x1="7.734" y1="12.37" x2="17.031" y2="12.37" fill="none" stroke="#010101" stroke-miterlimit="10"/>
  <line x1="12.383" y1="7.721" x2="12.383" y2="17.019" fill="none" stroke="#010101" stroke-miterlimit="10"/>
</svg>