<?xml version="1.0" encoding="UTF-8"?>
<svg id="Layer_1" xmlns="http://www.w3.org/2000/svg" version="1.1" viewBox="0 0 32 32">
  <!-- Generator: Adobe Illustrator 29.5.1, SVG Export Plug-In . SVG Version: 2.1.0 Build 141)  -->
  <defs>
    <style>
      .st0 {
        stroke-miterlimit: 10;
      }

      .st0, .st1 {
        fill: none;
        stroke: #010101;
      }

      .st1 {
        stroke-miterlimit: 10;
      }
    </style>
  </defs>
  <rect class="st0" x=".45" y=".46" width="31.06" height="31.06" rx="7.39" ry="7.39" transform="translate(-.03 31.94) rotate(-89.94)"/>
  <g>
    <path class="st1" d="M24.6,20.58s-2.43.98-6.1,1.31c-.78.09-1.63.13-2.53.13s-1.74-.04-2.53-.13c-3.67-.34-6.1-1.31-6.1-1.31,0,0,1.44-2.16,2.87-5.03,1.44-2.87.24-8.63,5.75-8.63s4.31,5.75,5.75,8.63c1.43,2.87,2.87,5.03,2.87,5.03Z"/>
    <path class="st1" d="M18.56,22.45c0,1.43-1.16,2.59-2.59,2.59s-2.59-1.16-2.59-2.59c0-.19.02-.38.06-.56.78.09,1.63.13,2.53.13s1.74-.04,2.53-.13c.04.18.06.37.06.56Z"/>
  </g>
</svg>